<svg id="Layer_1" data-name="Layer 1" xmlns="http://www.w3.org/2000/svg" viewBox="0 0 744 422"><defs><style>.cls-1{fill:none;}.cls-2{fill:#f1173e;}.cls-3{fill:#fff;}</style></defs><title>Artboard 1</title><path class="cls-1" d="M172.22,159.26c-26.9,0-40.34,24.84-40.34,52.49,0,26.9,14.57,51,40.16,51,25.78,0,40.35-23.72,40.35-52.3C212.38,185.41,199.3,159.26,172.22,159.26Z"/><path class="cls-2" d="M579.41,159.26c-26.9,0-40.35,24.84-40.35,52.49,0,26.9,14.57,51,40.16,51,25.78,0,40.35-23.72,40.35-52.3C619.57,185.41,606.49,159.26,579.41,159.26Z"/><path class="cls-2" d="M461.36,160c-7.1,0-12.51.56-15.32,1.31v48.94a54.51,54.51,0,0,0,13.45,1.31c19.61,0,31.57-9.53,31.57-26.9C491.06,168,479.29,160,461.36,160Z"/><path class="cls-2" d="M533,0C416.47,0,322,94.47,322,211s94.47,211,211,211,211-94.47,211-211S649.53,0,533,0ZM363.49,275.81c-12.14,0-25.4-3.55-32.13-8l4.11-13.63a57.59,57.59,0,0,0,29.14,8.22c16.62,0,26.34-8.78,26.34-21.48,0-11.77-6.72-18.49-23.72-25C346.68,208.57,334,197.93,334,180.18c0-19.61,16.25-34.18,40.72-34.18,12.89,0,22.23,3,27.83,6.16L398,165.42a50.14,50.14,0,0,0-23.91-6c-17.18,0-23.72,10.27-23.72,18.87,0,11.77,7.66,17.56,25,24.28,21.29,8.22,32.13,18.49,32.13,37C407.57,259,393.19,275.81,363.49,275.81Zm134.11-65C489,220,475,224.64,459.12,224.64A56,56,0,0,1,446,223.51v50.43H429.79V149.55A188.33,188.33,0,0,1,461,147.12c16.06,0,27.83,3.74,35.3,10.46,6.91,6,11,15.13,11,26.34C507.31,195.31,503.95,204.28,497.6,210.81ZM578.29,276c-33.25,0-56.59-25.78-56.59-63.88,0-40,24.84-66.12,58.46-66.12,34.37,0,56.59,26.34,56.59,63.69C636.75,253,610.41,276,578.29,276ZM693.53,161.88V273.95H677.09V161.88H638.8V148.05H732v13.82Z"/><polygon class="cls-3" points="77.34 200.73 16.45 200.73 16.45 148.05 0.2 148.05 0.2 273.95 16.45 273.95 16.45 214.92 77.34 214.92 77.34 273.95 93.77 273.95 93.77 148.05 77.34 148.05 77.34 200.73"/><path class="cls-3" d="M173,146c-33.62,0-58.46,26.15-58.46,66.12,0,38.1,23.35,63.88,56.6,63.88,32.13,0,58.46-23,58.46-66.31C229.56,172.34,207.34,146,173,146ZM172,262.74c-25.59,0-40.16-24.09-40.16-51,0-27.64,13.45-52.49,40.34-52.49,27.08,0,40.16,26.15,40.16,51.18C212.38,239,197.81,262.74,172,262.74Z"/><polygon class="cls-3" points="324.82 148.05 231.62 148.05 231.62 161.88 269.91 161.88 269.91 273.95 286.35 273.95 286.35 161.88 324.82 161.88 324.82 148.05"/></svg>